<svg id="Layer_1" data-name="Layer 1" xmlns="http://www.w3.org/2000/svg" viewBox="0 0 1280 1024"><defs><style>.cls-1{fill:#f39a00;}</style></defs><g id="N6GE5o.tif"><g id="Group_4" data-name="Group 4"><path id="Path_5" data-name="Path 5" class="cls-1" d="M1641.2,269.57c-4.35,16.3-12.12,29-18.81,42.13-5.23,10.28-5.11,16.49,9.4,15.76,16.18-.79,11.71,15.55,11.93,21.61.3,7.87-6.68,20.37-15.23,22.44-9.23,2.23-6.64,6.84-9.61,11.67-10.2,16.6,4.91,19.8,11.22,26.67,12.65,13.77,9.77,27.78-9.17,32.45-9.6,2.38-10.54,5.61-5.49,12.39,8.61,11.58,4.88,20.74-5.25,28.35-16.34,12.27-16.26,30.6-17.14,47.91-.54,10.66-5.28,12.66-13.83,12s-17-2.38-25.48-2c-10.56.44-16-3.36-19.9-13.49-5.36-13.9-28.27-18.45-37-6.69-12.61,17-25.6,17.13-42.42,7.88-11-6-18.91-6.21-28.42,7.64-7.08,10.32-25.88,18.58-38.7,17.62-20.52-1.54-36.29,6.42-53.42,13.41-6.45,2.63-7.08,6-5,12.47,5.83,17.89,20,28.7,32.95,40.48,6.76,6.14,13,2.21,18.46-2.66,8.26-7.42,16.2-6.61,24.42-.05,8.72,7,4,13.37.49,21.06-5.41,11.68-14.8,22.09-11,37.19,2.17,8.71-7.76,8.74-13,11.26-21.24,10.27-21.36,10.1-14.61,32.46,2,6.67,3.68,13.47,6.27,19.91,5.08,12.67,2.7,22.14-4.38,34.92-12.36,22.29-23.7,51.91-14.32,73.59,12.07,27.91-.68,51.17,1.2,76.21a177.25,177.25,0,0,0,8.92,42.17c5.37,16.12-5.35,25-13,35.47-3.7,5-7.63.53-11.19-1.37-24-12.84-48.89-24.46-71.92-38.94a121.29,121.29,0,0,0-71.47-19.38c-27.78,1.25-43.77-16.88-61.56-32.86-.78-.7-1.93-1.67-1.92-2.48.46-16.35-.09-32.85,2-49,1.46-11.12,11-17.67,20.46-23.42,14.79-9,30.11-16.55,47.18-19.68,10.32-1.89,14.35-8.68,12-17.18-6.33-22.67-3.6-45.73-5-68.59-1-16.6-6.77-21.38-23.74-19.17-19.15,2.5-21,.23-15.42-18.2,3-9.94,9.17-18.11,14.21-26.88,8-13.9,16.29-27.56,22.27-42.59a46.77,46.77,0,0,1,27.52-27.63,62.92,62.92,0,0,0,5.8-2.79c11.72-5.78,24.67-12.12,23.69-27.1-1-16-13-27-26-34.71-7.55-4.49-16.83-3.43-19.13,8.69-.76,4-.16,10.07-5.83,9.93s-9.55-4.53-10.93-10.18c-2.55-10.4-5.72-20.76-6.94-31.34a62.15,62.15,0,0,0-20.47-39c-11.79-10.93-19.25-24.15-26.45-37.87-10.5-20-24.77-27.19-47.48-23.72a96.56,96.56,0,0,0-12.64,2.2c-31.78,9.27-57.29,5.12-81.5-22.33-21.68-24.56-55.92-27.76-87.93-27.26-17.32.28-24.9,17.19-35.56,27.94-6.28,6.33-13,19.34-19.88,14.78-9.59-6.38-18.6-17.72-17.88-32.16a409.81,409.81,0,0,1,13.92-88.65,209.59,209.59,0,0,0,7.11-68.39c-2.28-36.66-28-63.05-65.18-72.42-12-3-24-5.52-36-8.45-6.59-1.61-11.85-4.88-6.13-12.14,7.05-9,13.93-18,3.14-27.94-10.3-9.44-23.58-12.66-35.47-4.31-16.36,11.47-34.75,13.31-53.34,15.1-47,4.53-93-46.88-82.4-92.72,6.07-26.2,2.89-52.22,1.2-78.24a460,460,0,0,1-.25-49.68c.24-5.78-.36-12.93,4.5-16.68,18.22-14.06,10.92-32.77,9.86-50.21-.63-10.45-6.39-18.32-16.62-21.19-9.36-2.62-12.69-8.9-13.74-17.51-.32-2.66-1.08-5.28-1.17-7.94-.33-10.14-10.06-24.52-4.48-28.49,10.54-7.52,25.85-8.41,39.21-11.92,6.63-1.74,9.61,4,12.93,7.54,11.38,12.14,23.3,20.8,41.65,19.51,13.24-.93,24.37,18.39,21,32.88-3.16,13.61,13.51,37.85,26.67,39,3.28.29,4.72-1.73,6.59-3.58,22.91-22.56,51-36.67,79.93-49.61,8.66-3.87,14.55-1,20.07,4.22,9.64,9,20.44,13.28,33.42,9.81,12.35-3.29,13.64,3.61,12.48,12.91-.6,4.78-1.66,9.5-2.47,14.25-1.41,8.29,1.61,13,10.25,14.91,10.4,2.33,20.38,6.71,30.83,8.65,10.64,2,19.32,6.43,25.25,15.24,7.65,11.36,13.33,8.06,20.27-.95,10.43-13.55,22-26.18,32.61-39.6,5.36-6.81,12.19-9.85,20.23-11.7,4.11-.95,8.17-1.68,8.87,3.28,2.3,16.19,13.39,13.11,22.87,9.84,16.64-5.73,21.73.92,20.8,16.49-1,16,4.59,25.82,22.85,25.27a23.36,23.36,0,0,1,21.55,11.21c5.42,8.16,15.76,3.52,23.8,3.61,29.11.35,32.4,5.37,20,32.66-10.31,22.61,3.83,50.72,30.72,56.54,19.58,4.24,39.34,17.24,60.22,3.62,11.1,10.66,27.08-1.32,38.45,8.31,5.15,4.36,7.14-.89,10.29-3.4,4.79-3.8,7.34-14.31,16.28-7.42,8.2,6.32-.25,12.12-1.71,18.31-5.24,22.23-13.65,43.94-10,67.65,3,19.7,27.68,30.76,43.92,18.81,6.88-5.06,12.8-11.4,19.53-16.68,4.39-3.44,8.52-10.66,14.73-7.11,5.44,3.1,6.73,10.71,7.91,16.89A16.09,16.09,0,0,1,1370.34,70c-9.94,15.25-2.65,22.77,11.49,28,4.47,1.65,8.44,4.67,12.94,6.25,8.22,2.89,8.8,7,4.94,14.53-4.94,9.65-7.24,19.42,8.16,22.81,13,2.87,16.15,14.15,19.24,25,2.87,10.12,6,18.77,19.43,19.48s6.18,10.22,5.19,16.76c-.78,5-6.94,10.91-2.12,14.73,6.24,4.95,10.06-3.46,14.41-6.41,16-10.9,46.63-10.17,60.85,2.72,8.25,7.49,18.77,7.23,28.42,9.37,9.42,2.1,13.23,5.67,9.59,15.25-1.32,3.48-1.33,7.47-2.76,10.88-5.9,14.11-1.61,17.75,12.2,12.49,5.91-2.26,9.49-2.41,12.66,5.59,2.87,7.25,10.87,10.64,20.37,8.26C1616.52,272.83,1628.15,271.7,1641.2,269.57Z"/></g></g></svg>