<svg id="Layer_1" data-name="Layer 1" xmlns="http://www.w3.org/2000/svg" viewBox="0 0 1280 1024"><defs><style>.cls-1{fill:#f39a00;}</style></defs><g id="N6GE5o.tif"><g id="Group_4" data-name="Group 4"><path id="Path_5" data-name="Path 5" class="cls-1" d="M1738.64,255.18c-5.81,21.72-16.16,38.62-25.07,56.14-7,13.69-6.81,22,12.52,21,21.56-1.06,15.61,20.72,15.91,28.79.39,10.5-8.92,27.15-20.3,29.91-12.31,3-8.85,9.12-12.81,15.55-13.59,22.12,6.54,26.39,14.95,35.55,16.86,18.34,13,37-12.21,43.24-12.81,3.16-14.05,7.48-7.33,16.51,11.48,15.42,6.51,27.63-7,37.78-21.77,16.35-21.66,40.77-22.83,63.84-.73,14.2-7,16.88-18.44,16s-22.69-3.17-34-2.71c-14.07.59-21.32-4.48-26.52-18-7.14-18.52-37.67-24.58-49.32-8.91-16.8,22.61-34.11,22.82-56.52,10.49-14.64-8.06-25.21-8.27-37.88,10.18-9.44,13.75-34.49,24.77-51.57,23.48-27.35-2.05-48.36,8.56-71.19,17.88-8.6,3.5-9.43,8-6.62,16.62,7.77,23.83,26.6,38.24,43.91,53.94,9,8.18,17.38,2.94,24.6-3.55,11-9.88,21.59-8.81,32.54-.07,11.62,9.28,5.4,17.83.66,28.07-7.22,15.57-19.73,29.43-14.72,49.56,2.89,11.61-10.34,11.65-17.28,15-28.3,13.69-28.46,13.45-19.48,43.26,2.68,8.87,4.91,17.94,8.37,26.52,6.77,16.89,3.59,29.51-5.85,46.53-16.46,29.71-31.58,69.18-19.08,98.08,16.09,37.19-.9,68.18,1.61,101.56a236.14,236.14,0,0,0,11.88,56.18c7.15,21.5-7.13,33.37-17.33,47.27-4.92,6.71-10.16.71-14.9-1.82-32.06-17.11-65.15-32.6-95.84-51.89a161.62,161.62,0,0,0-95.25-25.83c-37,1.66-58.32-22.49-82-43.79-1-.93-2.58-2.23-2.56-3.3.61-21.79-.12-43.78,2.7-65.29,1.95-14.81,14.64-23.54,27.27-31.2,19.71-11.93,40.13-22.06,62.88-26.23,13.75-2.51,19.11-11.56,15.94-22.9-8.43-30.2-4.8-60.94-6.62-91.4-1.32-22.12-9-28.49-31.64-25.54-25.52,3.33-27.94.31-20.54-24.26,4-13.24,12.21-24.14,18.93-35.81,10.68-18.53,21.71-36.73,29.68-56.76A62.34,62.34,0,0,1,1197,688.08a82.93,82.93,0,0,0,7.73-3.71c15.61-7.71,32.87-16.16,31.58-36.11-1.39-21.37-17.41-36-34.67-46.26-10.06-6-22.42-4.57-25.5,11.57-1,5.29-.21,13.43-7.76,13.25-7.39-.18-12.73-6-14.57-13.57-3.39-13.86-7.62-27.67-9.25-41.77a82.79,82.79,0,0,0-27.28-51.94c-15.7-14.56-25.64-32.18-35.25-50.47-14-26.65-33-36.23-63.26-31.61a128,128,0,0,0-16.85,2.93c-42.35,12.36-76.35,6.82-108.61-29.75-28.89-32.74-74.51-37-117.17-36.32-23.08.36-33.18,22.89-47.4,37.23-8.36,8.42-17.34,25.77-26.49,19.68-12.77-8.5-24.78-23.6-23.82-42.84A546.67,546.67,0,0,1,697,270.25a279.78,279.78,0,0,0,9.48-91.15c-3-48.85-37.35-84-86.87-96.5-15.93-4-32-7.36-48-11.26-8.78-2.15-15.79-6.5-8.16-16.18,9.39-11.95,18.57-24,4.18-37.23-13.72-12.57-31.42-16.87-47.27-5.75-21.8,15.3-46.3,17.74-71.08,20.13-62.62,6-124-62.48-109.81-123.57,8.1-34.91,3.85-69.57,1.6-104.26a614.23,614.23,0,0,1-.33-66.2c.32-7.7-.48-17.22,6-22.22,24.29-18.74,14.56-43.67,13.15-66.92-.85-13.92-8.52-24.41-22.15-28.24-12.48-3.48-16.91-11.85-18.31-23.33-.43-3.54-1.44-7-1.56-10.57-.44-13.52-13.41-32.68-6-38,14-10,34.44-11.21,52.26-15.89,8.82-2.31,12.8,5.33,17.22,10.05,15.17,16.18,31.06,27.72,55.51,26,17.63-1.24,32.48,24.5,28,43.81-4.21,18.14,18,50.44,35.54,52,4.37.38,6.29-2.32,8.79-4.78,30.53-30.06,67.92-48.87,106.51-66.11,11.54-5.16,19.38-1.28,26.75,5.63,12.84,12,27.23,17.69,44.53,13.07,16.45-4.39,18.18,4.8,16.63,17.21-.8,6.36-2.21,12.65-3.29,19-1.88,11,2.15,17.27,13.66,19.85,13.86,3.12,27.16,8.95,41.08,11.54,14.18,2.65,25.75,8.57,33.65,20.3,10.2,15.15,17.77,10.74,27-1.27,13.9-18,29.35-34.87,43.46-52.77,7.15-9.07,16.25-13.11,27-15.59,5.48-1.26,10.89-2.24,11.82,4.38,3.06,21.58,17.85,17.47,30.48,13.12,22.17-7.65,29,1.22,27.71,22-1.28,21.38,6.13,34.41,30.45,33.67a31.11,31.11,0,0,1,28.72,14.95c7.22,10.86,21,4.68,31.71,4.8,38.8.46,43.19,7.16,26.6,43.52-13.74,30.13,5.11,67.6,41,75.35,26.08,5.65,52.42,23,80.24,4.83,14.8,14.2,36.09-1.76,51.24,11.07,6.87,5.81,9.52-1.19,13.72-4.53,6.38-5.07,9.78-19.07,21.7-9.89,10.92,8.42-.34,16.15-2.28,24.4-7,29.62-18.2,58.55-13.3,90.16,4.07,26.24,36.89,41,58.54,25,9.16-6.74,17-15.19,26-22.22,5.85-4.58,11.36-14.2,19.63-9.48,7.25,4.13,9,14.28,10.55,22.52a21.48,21.48,0,0,1-2.93,14.41c-13.24,20.32-3.53,30.35,15.32,37.3,6,2.2,11.24,6.22,17.23,8.33,11,3.84,11.73,9.35,6.59,19.36-6.59,12.87-9.65,25.88,10.88,30.4,17.33,3.83,21.52,18.86,25.64,33.31,3.82,13.49,7.92,25,25.88,26,17.8.94,8.24,13.63,6.92,22.33-1,6.72-9.24,14.55-2.82,19.64,8.31,6.59,13.41-4.61,19.2-8.55,21.32-14.53,62.14-13.55,81.08,3.63,11,10,25,9.64,37.89,12.49,12.55,2.79,17.62,7.56,12.78,20.31-1.76,4.64-1.78,10-3.69,14.51-7.86,18.8-2.14,23.65,16.26,16.63,7.88-3,12.65-3.2,16.88,7.46,3.82,9.66,14.47,14.18,27.13,11C1705.74,259.51,1721.24,258,1738.64,255.18Z"/><path id="Path_13-2" data-name="Path 13-2" class="cls-1" d="M1623.64,232c6.19-41.47,6.39-42.22-35.83-53.74-11.33-3.09-12.68-14.63-22.34-18.27-19.14-7.2-62.72-5.52-82.3,4.32-3.84-4.74-.73-9.53.82-13.52,4.68-12.15.09-17.56-11.94-17.78-14.49-.27-21.49-8-24.44-21.59-3.88-17.93-11-33.64-31.16-39-12.34-3.26-8.11-10.57-3.89-17.83,8.63-14.81,5.83-25.16-11.57-30.42-5.33-1.61-9.91-5.61-15.19-7.55-16.17-6-19.94-15.87-11.28-30.89,10.38-18-3.51-31.36-11.07-44.46-4.39-7.62-15.54-3.36-22.45,2.21a268.08,268.08,0,0,0-28.82,25.25c-10.89,11.72-22.86,9.31-35.2,5-11.83-4.13-16.37-14.16-14.76-25.46,5.14-35.72,2-74.1,30.94-102.7,3.52-3.5,6.85-8.18,12.49-6.34,13.74,4.49,24,2.48,32.65-10.78,5.38-8.25,13-3.35,16.81,3.6a272.61,272.61,0,0,1,11.07,25.35c2.53,6,5,12.46,12.74,12.61,21.76.43,31.37,16.6,42.4,31.41,3.38,4.54,6.09,14,14.2,8.87,15.34-9.64,27.07-3.44,40.75,4.33,16.79,9.54,32.09,2.19,40.7-16.5,4.25-9.21,30.48-14.72,36.86-7.74,13.35,14.6,25.23,14,35.21-3.36,4.67-8.12,10.26-8.56,17.66-7.21a100.89,100.89,0,0,0,75.13-14.13c7.45-4.75,16.08-5.06,24.58-5.78,11.72-1,20.19-.93,13.34,15.51-3.81,9.17,22.1,41.15,32.61,43.19,3.33.64,6.32-.32,7.05-2.94,5.38-19.47,20.66-14.91,34.36-14.77,17,.18,17,0,41.87-13.41,7,9.19-8,26.26,11,31.21,18.44,4.8,35.24,7.08,51.15-8.31,8.24-8,10.38-13.86,5-23.48a40.67,40.67,0,0,1-6.11-15.76c-.87-12.43,2.63-25.53,11.25-33.32,7.69-7,17.81,2.55,23.54,8,14.09,13.27,35.3,4.9,49,17.88.45.42,6.75-4.17,9.25-7.29,13-16.18,28.07-15.48,45-7.06,20,9.92,34.87,23.45,38.26,46.91,1.39,9.65,5.83,17.39,16.79,19.36,4.43.81,8.92,3.67,7.29,8.61-6.16,18.54,8.4,15.41,17.66,17.09,10.45,1.9,21.06,3,31.64,4,15.92,1.48,33.2-1.21,20.72,26-6.51,14.22,15.58,28.12,34.14,21.59a233.53,233.53,0,0,0,42.53-19.5c12.19-7.32,19.69-4,25.71,6.65,6.66,11.8,24.48,19.14,13.63,38.26-4.57,8.05-8.54,14.82-17.94,15.67-17.88,1.61-15.63,10.82-10.49,23.23,4.89,11.83,16.84,25.52-5.67,34.2-3.7,1.42-4,11.37-6.07,17.33-5,14.53-4.18,30.57-15.25,43.6-11.67,13.71-21.69,24-40,9.75-9.4-7.3-17.26.24-24,6.88-10.54,10.44-21.55,18.7-37,9.3-11.18-6.81-14.58,8.52-24.24,8.13-14.8-.62-29.7,1.52-44.55,1.42a633.35,633.35,0,0,0-109.51,9.93c-8.69,1.46-15.73,2.7-14-10.49,1-7.1,4.18-17.53-5-20.58-10.48-3.49-24.91-5.84-32,3.35-8.83,11.44-11.67,4.29-16.63-1.37-7.08-8.07-14.82-18.8-26.25-13.52a32.07,32.07,0,0,0-19.55,32.56c.5,7.06.34,14.17.26,21.26-.18,17.13-8.23,22-23.83,13.8-7.49-3.92-14.21-9.34-21.49-13.72-27.09-16.28-50.63-7.14-58.35,22.69-1.31,5-2.49,9.44-8.67,10.48-18.19,3-36.34,6.33-54.5,9.55-5.91,1.05-12.19-3.58-12-6.56,2.28-29.08-16-12.77-26.87-12.73C1627.74,232.48,1625.71,232.19,1623.64,232Z"/></g></g></svg>