<svg xmlns="http://www.w3.org/2000/svg" viewBox="0 0 499 180"><defs><style>.cls-1{fill:#fff;}</style></defs><title>Weebel Typo + icon</title><g id="Icon_weebel" data-name="Icon + weebel"><g id="logo"><path class="cls-1" d="M73.72,82.16a16.14,16.14,0,0,1,.27,3A17.33,17.33,0,1,1,47.46,70.46L34.94,64.89a30.11,30.11,0,0,0-3.76,32.67l6.93,13.85,3.15,6.33,12.67,25.32a3.5,3.5,0,0,0,6.27,0l12.67-25.32,3.37-7,6.67-13.32a28.73,28.73,0,0,0,2.94-9.89Z"/><path class="cls-1" d="M38.79,61.26l-.7-15.77a7,7,0,0,1-1.9-.54,7.42,7.42,0,1,1,8.72-2.06,16.8,16.8,0,0,0,2.94,1.66c6.94,3.09,16.65,2.75,22.07-1.95a8.33,8.33,0,1,1,8.86,3.89c.43,7.83,7.89,16,15.56,18.68a7.39,7.39,0,0,1,10.35-5.92,7.4,7.4,0,0,1-6,13.52,8.58,8.58,0,0,1-1-.54l-12,9.9Z"/></g><path id="e" class="cls-1" d="M253.93,112.59a7.33,7.33,0,0,1-7.35,7H218.34c-.27,0-.53,0-.79,0a9,9,0,0,1-8.21-7.38c-.05-.4-.09-.81-.13-1.24v-.06a2.71,2.71,0,0,1,0-.29c0-.55-.06-1.13-.06-1.73V72.66c0-.62,0-1.21.06-1.76a1.93,1.93,0,0,1,0-.24.11.11,0,0,1,0-.08c0-.43.08-.84.13-1.24,0-.09,0-.17,0-.25A9,9,0,0,1,216.82,62h0c.48,0,1-.06,1.51-.06h28.24a7.32,7.32,0,0,1,7.35,6.94c.19,4.63-2.81,7.86-7.35,7.86H230.22a1,1,0,0,0-1,1V83.5a1,1,0,0,0,1,1h5.92a6.25,6.25,0,0,1,6.28,6.07c.07,3.85-2.42,6.49-6.24,6.49h-6a1,1,0,0,0-1,1v5.68a1,1,0,0,0,1,1h16.36C251.12,104.74,254.12,108,253.93,112.59Z"/><path id="e-2" data-name="e" class="cls-1" d="M417.93,112.59a7.33,7.33,0,0,1-7.35,7H382.34c-.27,0-.53,0-.79,0a9,9,0,0,1-8.21-7.38c0-.4-.09-.81-.13-1.24v-.06a2.71,2.71,0,0,1,0-.29c-.05-.55-.06-1.13-.06-1.73V72.66c0-.62,0-1.21.06-1.76a1.93,1.93,0,0,1,0-.24.11.11,0,0,1,0-.08c0-.43.08-.84.13-1.24,0-.09,0-.17,0-.25A9,9,0,0,1,380.82,62h0c.48,0,1-.06,1.51-.06h28.24a7.32,7.32,0,0,1,7.35,6.94c.19,4.63-2.81,7.86-7.35,7.86H394.22a1,1,0,0,0-1,1V83.5a1,1,0,0,0,1,1h5.92a6.25,6.25,0,0,1,6.28,6.07c.07,3.85-2.42,6.49-6.24,6.49h-6a1,1,0,0,0-1,1v5.68a1,1,0,0,0,1,1h16.36C415.12,104.74,418.12,108,417.93,112.59Z"/><path id="e-3" data-name="e" class="cls-1" d="M305.93,112.59a7.33,7.33,0,0,1-7.35,7H270.34c-.27,0-.53,0-.79,0a9,9,0,0,1-8.21-7.38c0-.4-.09-.81-.13-1.24v-.06a2.71,2.71,0,0,1,0-.29c-.05-.55-.06-1.13-.06-1.73V72.66c0-.62,0-1.21.06-1.76a1.93,1.93,0,0,1,0-.24.11.11,0,0,1,0-.08c0-.43.08-.84.13-1.24,0-.09,0-.17,0-.25A9,9,0,0,1,268.82,62h0c.48,0,1-.06,1.51-.06h28.24a7.32,7.32,0,0,1,7.35,6.94c.19,4.63-2.81,7.86-7.35,7.86H282.22a1,1,0,0,0-1,1V83.5a1,1,0,0,0,1,1h5.92a6.25,6.25,0,0,1,6.28,6.07c.07,3.85-2.42,6.49-6.24,6.49h-6a1,1,0,0,0-1,1v5.68a1,1,0,0,0,1,1h16.36C303.12,104.74,306.12,108,305.93,112.59Z"/><path id="b" class="cls-1" d="M361.46,93.86a13.28,13.28,0,0,0-4.88-3.2,12.35,12.35,0,0,0,4.56-3,14.2,14.2,0,0,0,3.6-9.76,15,15,0,0,0-9-13.84c-3.2-1.52-6.64-2.08-11.36-2.08H322a15,15,0,0,0-1.68.08h0a9,9,0,0,0-7.05,6.09.19.19,0,0,0,0,.1,19.17,19.17,0,0,0-.38,3.47s0,0,0,0c0,.3,0,.63,0,1v36.16c0,.33,0,.65,0,1a18.55,18.55,0,0,0,.36,3.39,9,9,0,0,0,7.95,6.35h23.27c4.8,0,8.32-.56,11.6-2.08,5.6-2.64,9.12-7.6,9.12-13.84A13.91,13.91,0,0,0,361.46,93.86ZM332.9,77.74a1,1,0,0,1,1-1h4.6a9.33,9.33,0,0,1,4.24.8,4.55,4.55,0,0,1,0,7.84,9.33,9.33,0,0,1-4.24.8h-4.6a1,1,0,0,1-1-1Zm10.72,26.2a9.33,9.33,0,0,1-4.24.8H333.9a1,1,0,0,1-1-1V96.3a1,1,0,0,1,1-1h5.48a9.33,9.33,0,0,1,4.24.8,4.55,4.55,0,0,1,0,7.84Z"/><path id="w" class="cls-1" d="M163.94,100.77a2.67,2.67,0,0,1,2.53,1.82l3.35,10.07c.84,2.51,1.76,4.28,3.07,5.39l0,0a11,11,0,0,0,17-1.71s0,0,0,0A12.6,12.6,0,0,0,192,112.1l11-36.56c.25-.83.46-1.56.63-2.22a.14.14,0,0,0,0-.07c.09-.34.17-.65.24-1h0A9.5,9.5,0,0,0,188.7,63a7.75,7.75,0,0,0-3.28,4.49l-5.89,17.72a1,1,0,0,1-1.9,0l-4.36-14.49-.77-2.57-.12-.39a10.68,10.68,0,0,0-1-2.37,8,8,0,0,0-.48-.71,8.42,8.42,0,0,0-13.82,0,8,8,0,0,0-.48.71,10.68,10.68,0,0,0-1,2.37l-.12.39-.77,2.57-4.36,14.49a1,1,0,0,1-1.9,0l-5.89-17.72A7.75,7.75,0,0,0,139.3,63a9.5,9.5,0,0,0-15.13,9.31h0c.07.31.15.62.24,1a.14.14,0,0,0,0,.07c.17.66.38,1.39.63,2.22l11,36.56a12.6,12.6,0,0,0,2.09,4.25s0,0,0,0a11,11,0,0,0,17,1.71l0,0c1.31-1.11,2.23-2.88,3.07-5.39l3.39-10.18a2.5,2.5,0,0,1,2.37-1.71Z"/><path id="l" class="cls-1" d="M468,112.59a7.33,7.33,0,0,1-7.35,7H433.15a9,9,0,0,1-7.95-6.35,18.55,18.55,0,0,1-.36-3.39c0-.31,0-.63,0-1V72.44a24.2,24.2,0,0,1,.21-3.12A10.11,10.11,0,0,1,433,62h.06a9,9,0,0,1,1.73-.16,9.19,9.19,0,0,1,1.75.16h0a10.1,10.1,0,0,1,8.28,8.91s0,.08,0,.13,0,.36,0,.55h0c0,.23,0,.47,0,.71s0,.26,0,.39v31.08a1,1,0,0,0,1,1h14.76C465.2,104.74,468.2,108,468,112.59Z"/></g></svg>