<svg xmlns="http://www.w3.org/2000/svg" width="233.512" height="211.884" viewBox="0 0 233.512 211.884">
  <g id="Group_79" data-name="Group 79" transform="translate(-226 -379)">
    <path id="Path_628" data-name="Path 628" d="M411.988,13.447h-80.7a36.052,36.052,0,0,0-31.222,18.025l-40.352,69.894a36.043,36.043,0,0,0,0,36.05l40.352,69.89a36.052,36.052,0,0,0,31.222,18.025h80.7a36.052,36.052,0,0,0,31.222-18.025l40.352-69.89a36.043,36.043,0,0,0,0-36.05L443.21,31.472A36.052,36.052,0,0,0,411.988,13.447Z" transform="translate(-28.881 365.553)" fill="#f6d087"/>
    <g id="Group_77" data-name="Group 77" transform="translate(-14 -12)">
      <path id="Polygon_2" data-name="Polygon 2" d="M40.669,7.507a5,5,0,0,1,8.662,0L85.674,70.5A5,5,0,0,1,81.343,78H8.657a5,5,0,0,1-4.331-7.5Z" transform="translate(409 453) rotate(90)" fill="#fff"/>
      <path id="Polygon_1" data-name="Polygon 1" d="M40.144,7.734a5,5,0,0,1,8.713,0L84.8,71.546A5,5,0,0,1,80.445,79H8.555A5,5,0,0,1,4.2,71.546Z" transform="translate(403 449) rotate(90)" fill="#f74e55"/>
    </g>
  </g>
</svg>
