<svg xmlns="http://www.w3.org/2000/svg" width="233.512" height="211.884" viewBox="0 0 233.512 211.884">
  <g id="Group_80" data-name="Group 80" transform="translate(-843 -376)">
    <path id="Path_629" data-name="Path 629" d="M411.988,13.447h-80.7a36.052,36.052,0,0,0-31.222,18.025l-40.352,69.894a36.043,36.043,0,0,0,0,36.05l40.352,69.89a36.052,36.052,0,0,0,31.222,18.025h80.7a36.052,36.052,0,0,0,31.222-18.025l40.352-69.89a36.043,36.043,0,0,0,0-36.05L443.21,31.472A36.052,36.052,0,0,0,411.988,13.447Z" transform="translate(588.119 362.553)" fill="#f6d087"/>
    <g id="Group_71" data-name="Group 71" transform="translate(554.913 -330.335)">
      <g id="Group_75" data-name="Group 75" transform="translate(-2 2)">
        <path id="Path_625" data-name="Path 625" d="M546.629,1067v30.156a1.785,1.785,0,0,1-2.833,1.445l-15.933-11.561a1.784,1.784,0,0,0-2.1,0L509.833,1098.6a1.785,1.785,0,0,1-2.833-1.445V1067Z" transform="translate(-117.396 -230.418)" fill="#fff"/>
        <circle id="Ellipse_167" data-name="Ellipse 167" cx="44.985" cy="44.985" r="44.985" transform="translate(364.434 757.68)" fill="#fff"/>
      </g>
      <path id="Path_621" data-name="Path 621" d="M545.629,1082v30.156a1.785,1.785,0,0,1-2.833,1.445l-15.933-11.56a1.784,1.784,0,0,0-2.1,0l-15.933,11.56a1.785,1.785,0,0,1-2.833-1.445V1082Z" transform="translate(-122.753 -241.063)" fill="#cbcbcb" opacity="0.25"/>
      <path id="Path_622" data-name="Path 622" d="M546.629,1067v30.156a1.785,1.785,0,0,1-2.833,1.445l-15.933-11.561a1.784,1.784,0,0,0-2.1,0L509.833,1098.6a1.785,1.785,0,0,1-2.833-1.445V1067Z" transform="translate(-123.396 -231.418)" fill="#f74e55"/>
      <circle id="Ellipse_165" data-name="Ellipse 165" cx="44.985" cy="44.985" r="44.985" transform="translate(358.434 756.68)" fill="#f74e55"/>
      <circle id="Ellipse_166" data-name="Ellipse 166" cx="34.81" cy="34.81" r="34.81" transform="translate(368.609 767.212)" fill="#f2ac19"/>
      <path id="Path_623" data-name="Path 623" d="M511.544,915.6l3.9-8.271a4.284,4.284,0,0,1,7.682-.135l4.191,8.129a4.283,4.283,0,0,0,3.266,2.286l9.073,1.156a4.284,4.284,0,0,1,2.5,7.265l-6.436,6.5a4.283,4.283,0,0,0-1.165,3.813l1.7,8.986a4.284,4.284,0,0,1-6.136,4.625l-8.169-4.113a4.283,4.283,0,0,0-3.987.07l-8.02,4.4a4.284,4.284,0,0,1-6.295-4.406l1.387-9.041a4.284,4.284,0,0,0-1.3-3.77l-6.661-6.268a4.284,4.284,0,0,1,2.246-7.348L508.36,918A4.284,4.284,0,0,0,511.544,915.6Z" transform="translate(-116.153 -127.173)" fill="#edc815"/>
    </g>
  </g>
</svg>
